<?xml version="1.0" encoding="UTF-8" standalone="no"?>
<svg
   xmlns:dc="http://purl.org/dc/elements/1.1/"
   xmlns:cc="http://creativecommons.org/ns#"
   xmlns:rdf="http://www.w3.org/1999/02/22-rdf-syntax-ns#"
   xmlns:svg="http://www.w3.org/2000/svg"
   xmlns="http://www.w3.org/2000/svg"
   id="svg2"
   version="1.1"
   width="160"
   height="160">
  <metadata
     id="metadata16">
    <rdf:RDF>
      <cc:Work
         rdf:about="">
        <dc:format>image/svg+xml</dc:format>
        <dc:type
           rdf:resource="http://purl.org/dc/dcmitype/StillImage" />
        <dc:title></dc:title>
      </cc:Work>
    </rdf:RDF>
  </metadata>
  <defs
     id="defs14" />
  <rect
     y="41.155758"
     x="30.959425"
     height="84.888741"
     width="106.85995"
     id="rect3344"
     style="fill:#e65757;fill-rule:evenodd;stroke:none;stroke-width:1px;stroke-linecap:butt;stroke-linejoin:miter;stroke-opacity:1;fill-opacity:1" />
  <g
     style="fill:#ffffff"
     id="g6"
     transform="matrix(1,0.21625,0,1,-26.890625,-380.96051)">
    <path
       id="path8"
       d="m 160.16,353.9 c -1.0274,-0.0432 -2.1572,0.14856 -3.3457,0.60156 l -107.36,40.92 c -4.7542,1.812 -8.582,7.1126 -8.582,11.885 l 0,107.77 c -1e-6,4.7722 3.8278,7.1538 8.582,5.3418 l 0.79297,-0.30273 c -0.19453,-0.64689 -0.30859,-1.3586 -0.30859,-2.1426 l 0,-107.77 c 0,-4.7722 3.843,-10.076 8.6152,-11.891 l 106.57,-40.52 c -0.66948,-2.3606 -2.517,-3.7901 -4.9551,-3.8926 z"
       style="color:#000000;fill-opacity:0.23457001" />
    <path
       id="path10"
       d="m 58.549,398.19 c -4.7722,1.8146 -8.6152,7.119 -8.6152,11.891 l 0,107.77 c 0,4.7722 3.843,7.152 8.6152,5.3374 l 107.77,-40.98 c 4.7722,-1.8146 8.6133,-7.1162 8.6133,-11.888 l 0,-107.77 c 0,-4.7722 -3.8411,-7.1547 -8.6133,-5.34 l -107.77,40.98 z m 30.461,23.154 0.008,-0.003 c 4.9574,-1.885 8.4829,-0.0134 9.7324,4.35 l 27.4,-10.419 c 1.2473,-5.3128 4.7509,-9.8573 9.709,-11.743 7.8748,-2.9944 16.532,1.7998 19.234,10.653 l 6.457,21.138 c 2.7034,8.8528 -1.5353,18.551 -9.4102,21.545 -6.9132,2.6287 -14.427,-0.74261 -17.988,-7.5955 l -43.436,16.516 c -3.5603,9.5608 -11.076,18.647 -17.99,21.276 -7.8763,2.995 -12.112,-3.4805 -9.4082,-14.389 l 6.457,-26.049 c 2.7027,-10.91 11.358,-22.286 19.234,-25.281 z m 17.035,7.5595 0,8.8066 -7.0703,2.6885 6.7305,5.9798 6.7266,5.9813 6.7344,-11.104 6.7305,-11.098 -6.6309,2.5214 0,-8.8027 -13.221,5.0272 z"
       style="color:#000000" />
  </g>
</svg>
